<mxfile modified="2019-10-21T01:58:35.982Z" host="www.draw.io" agent="Mozilla/5.0 (Windows NT 10.0; Win64; x64) AppleWebKit/537.36 (KHTML, like Gecko) Chrome/71.0.3578.98 Safari/537.36" etag="Em1MSU2dNsuWGMkk4VHk" version="12.1.3" type="github" pages="1">
  <diagram id="5452c4d5-2808-4cfa-bf48-c7e95f99c216" name="第 1 页">
    <mxGraphModel dx="1016" dy="788" grid="1" gridSize="10" guides="1" tooltips="1" connect="1" arrows="1" fold="1" page="1" pageScale="1" pageWidth="1654" pageHeight="2336" background="#ffffff" math="0" shadow="0">
      <root>
        <mxCell id="0"/>
        <mxCell id="1" parent="0"/>
        <mxCell id="168" value="" style="rounded=0;whiteSpace=wrap;html=1;labelBackgroundColor=none;strokeColor=#660033;strokeWidth=4;fillColor=none;gradientColor=none;fontFamily=Helvetica;fontSize=15;align=center;" parent="1" vertex="1">
          <mxGeometry x="195" y="140" width="890" height="1840" as="geometry"/>
        </mxCell>
        <mxCell id="124" value="" style="rounded=0;whiteSpace=wrap;html=1;labelBackgroundColor=none;strokeColor=#d6b656;strokeWidth=4;fillColor=#fff2cc;gradientColor=#ffd966;fontFamily=Helvetica;fontSize=15;align=center;" parent="1" vertex="1">
          <mxGeometry x="400" y="190" width="560" height="682" as="geometry"/>
        </mxCell>
        <mxCell id="126" value="" style="rounded=0;whiteSpace=wrap;html=1;labelBackgroundColor=none;strokeColor=#9673a6;strokeWidth=4;fillColor=#e1d5e7;fontFamily=Helvetica;fontSize=15;align=center;" parent="1" vertex="1">
          <mxGeometry x="400" y="1200" width="560" height="720" as="geometry"/>
        </mxCell>
        <mxCell id="125" value="" style="rounded=0;whiteSpace=wrap;html=1;labelBackgroundColor=none;strokeColor=#6c8ebf;strokeWidth=4;fillColor=#dae8fc;gradientColor=#7ea6e0;fontFamily=Helvetica;fontSize=15;align=center;" parent="1" vertex="1">
          <mxGeometry x="400" y="920" width="560" height="240" as="geometry"/>
        </mxCell>
        <mxCell id="pvGRQGjDQXarwlFAsB4F-170" value="" style="edgeStyle=orthogonalEdgeStyle;rounded=0;orthogonalLoop=1;jettySize=auto;html=1;strokeWidth=2;" parent="1" source="2" target="3" edge="1">
          <mxGeometry relative="1" as="geometry"/>
        </mxCell>
        <mxCell id="pvGRQGjDQXarwlFAsB4F-186" value="" style="edgeStyle=orthogonalEdgeStyle;rounded=0;orthogonalLoop=1;jettySize=auto;html=1;strokeWidth=2;entryX=1;entryY=0.5;entryDx=0;entryDy=0;" parent="1" source="2" target="pvGRQGjDQXarwlFAsB4F-185" edge="1">
          <mxGeometry relative="1" as="geometry">
            <mxPoint x="560" y="320" as="targetPoint"/>
          </mxGeometry>
        </mxCell>
        <mxCell id="2" value="&lt;font style=&quot;vertical-align: inherit&quot;&gt;&lt;font style=&quot;vertical-align: inherit&quot;&gt;ACC ON？&lt;/font&gt;&lt;/font&gt;" style="rhombus;whiteSpace=wrap;html=1;strokeWidth=2;fillColor=#f8cecc;fontFamily=Helvetica;align=center;strokeColor=#b85450;gradientColor=#ea6b66;" parent="1" vertex="1">
          <mxGeometry x="640" y="280" width="80" height="80" as="geometry"/>
        </mxCell>
        <mxCell id="3" value="&lt;font style=&quot;vertical-align: inherit&quot;&gt;&lt;font style=&quot;vertical-align: inherit&quot;&gt;&lt;font style=&quot;vertical-align: inherit&quot;&gt;&lt;font style=&quot;vertical-align: inherit&quot;&gt;&lt;font style=&quot;vertical-align: inherit&quot;&gt;&lt;font style=&quot;vertical-align: inherit&quot;&gt;&lt;font style=&quot;vertical-align: inherit&quot;&gt;&lt;font style=&quot;vertical-align: inherit&quot;&gt;检测打火电压?&lt;/font&gt;&lt;/font&gt;&lt;/font&gt;&lt;/font&gt;&lt;/font&gt;&lt;/font&gt;&lt;/font&gt;&lt;/font&gt;" style="strokeWidth=2;html=1;shape=mxgraph.flowchart.decision;whiteSpace=wrap;fillColor=#ffffff;fontFamily=Helvetica;align=center;strokeColor=#000000;" parent="1" vertex="1">
          <mxGeometry x="610" y="381" width="140" height="78" as="geometry"/>
        </mxCell>
        <mxCell id="w2s6LgRouyM42ttrvnSr-178" value="" style="edgeStyle=orthogonalEdgeStyle;rounded=0;orthogonalLoop=1;jettySize=auto;html=1;strokeWidth=2;" parent="1" source="3" edge="1">
          <mxGeometry relative="1" as="geometry">
            <mxPoint x="680" y="480" as="targetPoint"/>
          </mxGeometry>
        </mxCell>
        <mxCell id="pvGRQGjDQXarwlFAsB4F-179" value="" style="edgeStyle=orthogonalEdgeStyle;rounded=0;orthogonalLoop=1;jettySize=auto;html=1;strokeWidth=2;" parent="1" source="4" target="pvGRQGjDQXarwlFAsB4F-171" edge="1">
          <mxGeometry relative="1" as="geometry">
            <mxPoint x="680" y="600" as="targetPoint"/>
          </mxGeometry>
        </mxCell>
        <mxCell id="4" value="&lt;font style=&quot;vertical-align: inherit&quot;&gt;&lt;font style=&quot;vertical-align: inherit&quot;&gt;打开外围电路电源&lt;/font&gt;&lt;/font&gt;" style="strokeWidth=2;html=1;shape=mxgraph.flowchart.process;whiteSpace=wrap;fillColor=#d5e8d4;fontFamily=Helvetica;align=center;strokeColor=#82b366;" parent="1" vertex="1">
          <mxGeometry x="620" y="480" width="120" height="40" as="geometry"/>
        </mxCell>
        <mxCell id="39" style="edgeStyle=orthogonalEdgeStyle;rounded=0;html=1;endSize=6;jettySize=auto;orthogonalLoop=1;strokeWidth=2;fontFamily=Helvetica;" parent="1" source="5" edge="1">
          <mxGeometry relative="1" as="geometry">
            <mxPoint x="680" y="700" as="targetPoint"/>
          </mxGeometry>
        </mxCell>
        <mxCell id="pvGRQGjDQXarwlFAsB4F-174" value="" style="edgeStyle=orthogonalEdgeStyle;rounded=0;orthogonalLoop=1;jettySize=auto;html=1;strokeWidth=2;" parent="1" source="5" edge="1">
          <mxGeometry relative="1" as="geometry">
            <mxPoint x="510" y="640" as="targetPoint"/>
          </mxGeometry>
        </mxCell>
        <mxCell id="5" value="CPU已经唤醒？" style="strokeWidth=2;html=1;shape=mxgraph.flowchart.decision;whiteSpace=wrap;fillColor=#ffffff;fontFamily=Helvetica;align=center;strokeColor=#000000;" parent="1" vertex="1">
          <mxGeometry x="600" y="600" width="160" height="80" as="geometry"/>
        </mxCell>
        <mxCell id="21" value="Y" style="text;html=1;resizable=0;points=[];autosize=1;align=center;verticalAlign=middle;spacingTop=-4;fontFamily=Helvetica;labelPosition=center;verticalLabelPosition=middle;strokeWidth=2;fontSize=15;fontStyle=1" parent="1" vertex="1">
          <mxGeometry x="685" y="360" width="20" height="10" as="geometry"/>
        </mxCell>
        <mxCell id="25" value="&lt;span style=&quot;font-size: 15px;&quot;&gt;N&lt;/span&gt;" style="text;html=1;resizable=0;points=[];autosize=1;align=left;verticalAlign=top;spacingTop=-4;fontFamily=Helvetica;strokeWidth=2;fontSize=15;fontStyle=1" parent="1" vertex="1">
          <mxGeometry x="580" y="290" width="30" height="20" as="geometry"/>
        </mxCell>
        <mxCell id="41" style="edgeStyle=orthogonalEdgeStyle;rounded=0;html=1;endSize=6;jettySize=auto;orthogonalLoop=1;strokeWidth=2;fontFamily=Helvetica;" parent="1" source="27" target="40" edge="1">
          <mxGeometry relative="1" as="geometry"/>
        </mxCell>
        <mxCell id="27" value="&lt;font style=&quot;vertical-align: inherit&quot;&gt;&lt;font style=&quot;vertical-align: inherit&quot;&gt;&lt;font style=&quot;vertical-align: inherit&quot;&gt;&lt;font style=&quot;vertical-align: inherit&quot;&gt;采集电压，检测信号，控制外设，与应用通信&lt;/font&gt;&lt;/font&gt;&lt;/font&gt;&lt;/font&gt;&lt;br&gt;" style="strokeWidth=2;html=1;shape=mxgraph.flowchart.process;whiteSpace=wrap;fillColor=#d5e8d4;fontFamily=Helvetica;align=center;strokeColor=#82b366;" parent="1" vertex="1">
          <mxGeometry x="595" y="960" width="170" height="60" as="geometry"/>
        </mxCell>
        <mxCell id="95" style="edgeStyle=orthogonalEdgeStyle;rounded=0;html=1;entryX=0.5;entryY=0;entryPerimeter=0;endSize=6;jettySize=auto;orthogonalLoop=1;strokeWidth=2;fontFamily=Helvetica;fontSize=15;" parent="1" source="40" target="71" edge="1">
          <mxGeometry relative="1" as="geometry">
            <mxPoint x="679.8333333333335" y="1309.6666666666667" as="targetPoint"/>
          </mxGeometry>
        </mxCell>
        <mxCell id="w2s6LgRouyM42ttrvnSr-221" value="" style="edgeStyle=orthogonalEdgeStyle;rounded=0;orthogonalLoop=1;jettySize=auto;html=1;strokeWidth=2;" parent="1" source="40" edge="1">
          <mxGeometry relative="1" as="geometry">
            <mxPoint x="800" y="1080" as="targetPoint"/>
            <Array as="points">
              <mxPoint x="800" y="1080"/>
            </Array>
          </mxGeometry>
        </mxCell>
        <mxCell id="40" value="&lt;font style=&quot;vertical-align: inherit&quot;&gt;&lt;font style=&quot;vertical-align: inherit&quot;&gt;&lt;font style=&quot;vertical-align: inherit&quot;&gt;&lt;font style=&quot;vertical-align: inherit&quot;&gt;ACC OFF？&lt;/font&gt;&lt;/font&gt;&lt;/font&gt;&lt;/font&gt;" style="rhombus;whiteSpace=wrap;html=1;strokeWidth=2;fillColor=#f8cecc;fontFamily=Helvetica;align=center;strokeColor=#b85450;gradientColor=#ea6b66;" parent="1" vertex="1">
          <mxGeometry x="640" y="1040" width="80" height="80" as="geometry"/>
        </mxCell>
        <mxCell id="161" style="edgeStyle=orthogonalEdgeStyle;rounded=1;html=1;entryX=0.5;entryY=0;endSize=6;jettySize=auto;orthogonalLoop=1;strokeWidth=2;fontFamily=Helvetica;fontSize=15;exitX=0.5;exitY=1;exitDx=0;exitDy=0;exitPerimeter=0;entryDx=0;entryDy=0;entryPerimeter=0;" parent="1" source="qI7u0SJzhfAtIiUKy6f_-194" target="158" edge="1">
          <mxGeometry relative="1" as="geometry">
            <mxPoint x="679.7586206896551" y="1399.7586206896553" as="sourcePoint"/>
            <mxPoint x="679.9444444444443" y="1420.0555555555554" as="targetPoint"/>
          </mxGeometry>
        </mxCell>
        <mxCell id="160" style="edgeStyle=orthogonalEdgeStyle;rounded=1;html=1;entryX=0.5;entryY=0;endSize=6;jettySize=auto;orthogonalLoop=1;strokeWidth=2;fontFamily=Helvetica;fontSize=15;entryDx=0;entryDy=0;entryPerimeter=0;" parent="1" source="71" target="qI7u0SJzhfAtIiUKy6f_-194" edge="1">
          <mxGeometry relative="1" as="geometry">
            <mxPoint x="679.7586206896551" y="1319.9310344827586" as="targetPoint"/>
          </mxGeometry>
        </mxCell>
        <mxCell id="71" value="上报ACC关机" style="strokeWidth=2;html=1;shape=mxgraph.flowchart.process;whiteSpace=wrap;fillColor=#d5e8d4;fontFamily=Helvetica;align=center;strokeColor=#82b366;" parent="1" vertex="1">
          <mxGeometry x="620" y="1240" width="120" height="40" as="geometry"/>
        </mxCell>
        <mxCell id="77" value="MCU休眠" style="strokeWidth=2;html=1;shape=mxgraph.flowchart.process;whiteSpace=wrap;fillColor=#d5e8d4;fontFamily=Helvetica;align=center;strokeColor=#82b366;" parent="1" vertex="1">
          <mxGeometry x="620" y="1800" width="120" height="40" as="geometry"/>
        </mxCell>
        <mxCell id="w2s6LgRouyM42ttrvnSr-183" value="" style="edgeStyle=orthogonalEdgeStyle;rounded=0;orthogonalLoop=1;jettySize=auto;html=1;strokeWidth=2;" parent="1" source="84" target="w2s6LgRouyM42ttrvnSr-182" edge="1">
          <mxGeometry relative="1" as="geometry"/>
        </mxCell>
        <mxCell id="84" value="&lt;font style=&quot;vertical-align: inherit&quot;&gt;&lt;font style=&quot;vertical-align: inherit&quot;&gt;&lt;font style=&quot;vertical-align: inherit&quot;&gt;&lt;font style=&quot;vertical-align: inherit&quot;&gt;等待CPU休眠信号&lt;/font&gt;&lt;/font&gt;&lt;/font&gt;&lt;/font&gt;" style="strokeWidth=2;html=1;shape=mxgraph.flowchart.process;whiteSpace=wrap;fillColor=#d5e8d4;fontFamily=Helvetica;align=center;strokeColor=#82b366;" parent="1" vertex="1">
          <mxGeometry x="620" y="1460" width="120" height="40" as="geometry"/>
        </mxCell>
        <mxCell id="w2s6LgRouyM42ttrvnSr-211" value="" style="edgeStyle=orthogonalEdgeStyle;rounded=0;orthogonalLoop=1;jettySize=auto;html=1;strokeWidth=2;entryX=0.5;entryY=0;entryDx=0;entryDy=0;entryPerimeter=0;" parent="1" source="85" target="77" edge="1">
          <mxGeometry relative="1" as="geometry">
            <mxPoint x="680" y="1900" as="targetPoint"/>
          </mxGeometry>
        </mxCell>
        <mxCell id="85" value="60秒后，关闭外设电源，保留8257供电电源&lt;br&gt;" style="strokeWidth=2;html=1;shape=mxgraph.flowchart.process;whiteSpace=wrap;fillColor=#d5e8d4;fontFamily=Helvetica;align=center;strokeColor=#82b366;" parent="1" vertex="1">
          <mxGeometry x="615" y="1720" width="130" height="50" as="geometry"/>
        </mxCell>
        <mxCell id="121" value="Y" style="text;html=1;resizable=0;points=[];autosize=1;align=center;verticalAlign=middle;spacingTop=-4;fontFamily=Helvetica;labelPosition=center;verticalLabelPosition=middle;strokeWidth=2;fontSize=15;fontStyle=1" parent="1" vertex="1">
          <mxGeometry x="490" y="376" width="20" height="10" as="geometry"/>
        </mxCell>
        <mxCell id="127" value="" style="shape=flexArrow;endArrow=classic;html=1;fillColor=#f8cecc;strokeWidth=2;fontFamily=Helvetica;fontSize=15;strokeColor=#b85450;gradientColor=#ea6b66;width=11.428571428571429;endSize=8.071428571428571;" parent="1" edge="1">
          <mxGeometry width="50" height="50" relative="1" as="geometry">
            <mxPoint x="842.5" y="1865" as="sourcePoint"/>
            <mxPoint x="750" y="1815" as="targetPoint"/>
          </mxGeometry>
        </mxCell>
        <mxCell id="128" value="&lt;b&gt;&lt;font style=&quot;vertical-align: inherit&quot;&gt;&lt;font style=&quot;vertical-align: inherit&quot;&gt;ACC ON&lt;br&gt;休眠唤醒&lt;br&gt;&lt;/font&gt;&lt;/font&gt;&lt;/b&gt;" style="text;html=1;resizable=0;points=[];autosize=1;align=left;verticalAlign=top;spacingTop=-4;fontSize=15;fontFamily=Helvetica;" parent="1" vertex="1">
          <mxGeometry x="740" y="1860" width="80" height="40" as="geometry"/>
        </mxCell>
        <mxCell id="132" style="edgeStyle=orthogonalEdgeStyle;rounded=0;html=1;endSize=6;jettySize=auto;orthogonalLoop=1;strokeWidth=2;fontFamily=Helvetica;fontSize=15;entryX=0;entryY=0.5;entryPerimeter=0;" parent="1" source="129" target="133" edge="1">
          <mxGeometry relative="1" as="geometry">
            <mxPoint x="475" y="238" as="targetPoint"/>
          </mxGeometry>
        </mxCell>
        <mxCell id="129" value="" style="triangle;whiteSpace=wrap;html=1;labelBackgroundColor=none;strokeColor=#b85450;strokeWidth=4;fillColor=#f8cecc;gradientColor=#ea6b66;fontFamily=Helvetica;fontSize=15;align=center;" parent="1" vertex="1">
          <mxGeometry x="295" y="198" width="55" height="80" as="geometry"/>
        </mxCell>
        <mxCell id="130" value="&lt;b&gt;上电开机&lt;/b&gt;" style="text;html=1;resizable=0;points=[];autosize=1;align=left;verticalAlign=top;spacingTop=-4;fontSize=15;fontFamily=Helvetica;" parent="1" vertex="1">
          <mxGeometry x="220" y="228" width="90" height="20" as="geometry"/>
        </mxCell>
        <mxCell id="135" style="edgeStyle=orthogonalEdgeStyle;rounded=0;html=1;endSize=6;jettySize=auto;orthogonalLoop=1;strokeWidth=2;fontFamily=Helvetica;fontSize=15;" parent="1" source="133" edge="1">
          <mxGeometry relative="1" as="geometry">
            <mxPoint x="680" y="280" as="targetPoint"/>
          </mxGeometry>
        </mxCell>
        <mxCell id="133" value="MCU初始化" style="strokeWidth=2;html=1;shape=mxgraph.flowchart.process;whiteSpace=wrap;fillColor=#d5e8d4;fontFamily=Helvetica;align=center;strokeColor=#82b366;" parent="1" vertex="1">
          <mxGeometry x="620" y="218" width="120" height="40" as="geometry"/>
        </mxCell>
        <mxCell id="137" value="&lt;b&gt;开机流程&lt;/b&gt;" style="text;html=1;strokeColor=none;fillColor=none;align=center;verticalAlign=middle;whiteSpace=wrap;rounded=0;labelBackgroundColor=none;fontFamily=Helvetica;fontSize=15;" parent="1" vertex="1">
          <mxGeometry x="400" y="198" width="90" height="30" as="geometry"/>
        </mxCell>
        <mxCell id="145" value="&lt;span style=&quot;font-size: 15px;&quot;&gt;N&lt;/span&gt;" style="text;html=1;resizable=0;points=[];autosize=1;align=left;verticalAlign=top;spacingTop=-4;fontFamily=Helvetica;strokeWidth=2;fontSize=15;fontStyle=1" parent="1" vertex="1">
          <mxGeometry x="760" y="400" width="30" height="20" as="geometry"/>
        </mxCell>
        <mxCell id="150" value="Y" style="text;html=1;resizable=0;points=[];autosize=1;align=center;verticalAlign=middle;spacingTop=-4;fontFamily=Helvetica;labelPosition=center;verticalLabelPosition=middle;strokeWidth=2;fontSize=15;fontStyle=1" parent="1" vertex="1">
          <mxGeometry x="685" y="780" width="20" height="10" as="geometry"/>
        </mxCell>
        <mxCell id="152" value="&lt;b&gt;正常运行&lt;/b&gt;" style="text;html=1;strokeColor=none;fillColor=none;align=center;verticalAlign=middle;whiteSpace=wrap;rounded=0;labelBackgroundColor=none;fontFamily=Helvetica;fontSize=15;" parent="1" vertex="1">
          <mxGeometry x="410" y="943" width="90" height="30" as="geometry"/>
        </mxCell>
        <mxCell id="153" value="&lt;b&gt;关机流程&lt;/b&gt;" style="text;html=1;strokeColor=none;fillColor=none;align=center;verticalAlign=middle;whiteSpace=wrap;rounded=0;labelBackgroundColor=none;fontFamily=Helvetica;fontSize=15;" parent="1" vertex="1">
          <mxGeometry x="410" y="1245" width="90" height="30" as="geometry"/>
        </mxCell>
        <mxCell id="pvGRQGjDQXarwlFAsB4F-184" value="" style="edgeStyle=orthogonalEdgeStyle;rounded=0;orthogonalLoop=1;jettySize=auto;html=1;strokeWidth=2;" parent="1" source="158" edge="1">
          <mxGeometry relative="1" as="geometry">
            <mxPoint x="680" y="1460" as="targetPoint"/>
          </mxGeometry>
        </mxCell>
        <mxCell id="158" value="&lt;span&gt;&lt;font style=&quot;vertical-align: inherit&quot;&gt;&lt;font style=&quot;vertical-align: inherit&quot;&gt;POWER KEY&lt;br&gt;短按休眠&lt;br&gt;&lt;/font&gt;&lt;/font&gt;&lt;/span&gt;" style="strokeWidth=2;html=1;shape=mxgraph.flowchart.process;whiteSpace=wrap;fillColor=#d5e8d4;fontFamily=Helvetica;align=center;strokeColor=#82b366;" parent="1" vertex="1">
          <mxGeometry x="620" y="1400" width="120" height="40" as="geometry"/>
        </mxCell>
        <mxCell id="164" value="N" style="text;html=1;resizable=0;points=[];autosize=1;align=left;verticalAlign=top;spacingTop=-4;fontFamily=Helvetica;fontSize=15;fontStyle=1" parent="1" vertex="1">
          <mxGeometry x="765" y="1320" width="30" height="10" as="geometry"/>
        </mxCell>
        <mxCell id="qI7u0SJzhfAtIiUKy6f_-200" style="edgeStyle=orthogonalEdgeStyle;rounded=0;html=1;jettySize=auto;orthogonalLoop=1;strokeWidth=2;" parent="1" source="qI7u0SJzhfAtIiUKy6f_-174" edge="1">
          <mxGeometry relative="1" as="geometry">
            <mxPoint x="680" y="800" as="targetPoint"/>
          </mxGeometry>
        </mxCell>
        <mxCell id="pvGRQGjDQXarwlFAsB4F-175" value="" style="edgeStyle=orthogonalEdgeStyle;rounded=0;orthogonalLoop=1;jettySize=auto;html=1;strokeWidth=2;" parent="1" source="qI7u0SJzhfAtIiUKy6f_-174" edge="1">
          <mxGeometry relative="1" as="geometry">
            <mxPoint x="510" y="740" as="targetPoint"/>
          </mxGeometry>
        </mxCell>
        <mxCell id="qI7u0SJzhfAtIiUKy6f_-174" value="应用是否启动？" style="strokeWidth=2;html=1;shape=mxgraph.flowchart.decision;whiteSpace=wrap;fillColor=#ffffff;fontFamily=Helvetica;align=center;strokeColor=#000000;" parent="1" vertex="1">
          <mxGeometry x="600" y="700" width="160" height="80" as="geometry"/>
        </mxCell>
        <mxCell id="qI7u0SJzhfAtIiUKy6f_-192" value="" style="edgeStyle=orthogonalEdgeStyle;rounded=0;html=1;jettySize=auto;orthogonalLoop=1;strokeWidth=2;entryX=0.5;entryY=0;entryPerimeter=0;" parent="1" source="qI7u0SJzhfAtIiUKy6f_-178" target="27" edge="1">
          <mxGeometry relative="1" as="geometry">
            <mxPoint x="680" y="1020.1428571428571" as="targetPoint"/>
          </mxGeometry>
        </mxCell>
        <mxCell id="qI7u0SJzhfAtIiUKy6f_-178" value="开功放" style="strokeWidth=2;html=1;shape=mxgraph.flowchart.process;whiteSpace=wrap;fillColor=#d5e8d4;fontFamily=Helvetica;align=center;strokeColor=#82b366;" parent="1" vertex="1">
          <mxGeometry x="620" y="800.1428571428571" width="120" height="40" as="geometry"/>
        </mxCell>
        <mxCell id="qI7u0SJzhfAtIiUKy6f_-194" value="ACC OFF&lt;br&gt;&amp;gt;10s?&lt;br&gt;" style="strokeWidth=2;html=1;shape=mxgraph.flowchart.decision;whiteSpace=wrap;fillColor=#ffffff;fontFamily=Helvetica;align=center;strokeColor=#000000;" parent="1" vertex="1">
          <mxGeometry x="600" y="1300" width="160" height="80" as="geometry"/>
        </mxCell>
        <mxCell id="qI7u0SJzhfAtIiUKy6f_-197" value="" style="edgeStyle=elbowEdgeStyle;elbow=horizontal;endArrow=classic;html=1;strokeWidth=2;entryX=1;entryY=0.5;entryDx=0;entryDy=0;exitX=1;exitY=0.5;exitDx=0;exitDy=0;exitPerimeter=0;entryPerimeter=0;" parent="1" source="qI7u0SJzhfAtIiUKy6f_-194" target="27" edge="1">
          <mxGeometry width="50" height="50" relative="1" as="geometry">
            <mxPoint x="760" y="1320" as="sourcePoint"/>
            <mxPoint x="720" y="1110" as="targetPoint"/>
            <Array as="points">
              <mxPoint x="800" y="1280"/>
            </Array>
          </mxGeometry>
        </mxCell>
        <mxCell id="w2s6LgRouyM42ttrvnSr-181" value="Y" style="text;html=1;resizable=0;points=[];autosize=1;align=center;verticalAlign=middle;spacingTop=-4;fontFamily=Helvetica;labelPosition=center;verticalLabelPosition=middle;strokeWidth=2;fontSize=15;fontStyle=1" parent="1" vertex="1">
          <mxGeometry x="685" y="685" width="20" height="10" as="geometry"/>
        </mxCell>
        <mxCell id="w2s6LgRouyM42ttrvnSr-191" value="" style="edgeStyle=orthogonalEdgeStyle;rounded=0;orthogonalLoop=1;jettySize=auto;html=1;strokeWidth=2;" parent="1" source="w2s6LgRouyM42ttrvnSr-182" target="w2s6LgRouyM42ttrvnSr-189" edge="1">
          <mxGeometry relative="1" as="geometry"/>
        </mxCell>
        <mxCell id="pvGRQGjDQXarwlFAsB4F-189" value="" style="edgeStyle=orthogonalEdgeStyle;rounded=0;orthogonalLoop=1;jettySize=auto;html=1;strokeWidth=2;" parent="1" source="w2s6LgRouyM42ttrvnSr-182" target="w2s6LgRouyM42ttrvnSr-202" edge="1">
          <mxGeometry relative="1" as="geometry"/>
        </mxCell>
        <mxCell id="w2s6LgRouyM42ttrvnSr-182" value="&lt;font style=&quot;vertical-align: inherit&quot;&gt;&lt;font style=&quot;vertical-align: inherit&quot;&gt;CPU已经休眠？&lt;/font&gt;&lt;/font&gt;&lt;br&gt;" style="strokeWidth=2;html=1;shape=mxgraph.flowchart.decision;whiteSpace=wrap;fillColor=#ffffff;fontFamily=Helvetica;align=center;strokeColor=#000000;" parent="1" vertex="1">
          <mxGeometry x="600" y="1520" width="160" height="80" as="geometry"/>
        </mxCell>
        <mxCell id="w2s6LgRouyM42ttrvnSr-187" value="Y" style="text;html=1;strokeColor=none;fillColor=none;align=center;verticalAlign=middle;whiteSpace=wrap;rounded=0;labelBackgroundColor=none;fontFamily=Helvetica;fontSize=15;fontStyle=1" parent="1" vertex="1">
          <mxGeometry x="675" y="1600" width="40" height="20" as="geometry"/>
        </mxCell>
        <mxCell id="w2s6LgRouyM42ttrvnSr-188" value="" style="edgeStyle=segmentEdgeStyle;endArrow=classic;html=1;strokeWidth=2;entryX=0.5;entryY=0;entryDx=0;entryDy=0;entryPerimeter=0;exitX=0.5;exitY=1;exitDx=0;exitDy=0;" parent="1" source="pvGRQGjDQXarwlFAsB4F-185" target="w2s6LgRouyM42ttrvnSr-189" edge="1">
          <mxGeometry width="50" height="50" relative="1" as="geometry">
            <mxPoint x="510" y="370" as="sourcePoint"/>
            <mxPoint x="510" y="1530" as="targetPoint"/>
            <Array as="points"/>
          </mxGeometry>
        </mxCell>
        <mxCell id="w2s6LgRouyM42ttrvnSr-194" value="" style="edgeStyle=orthogonalEdgeStyle;rounded=0;orthogonalLoop=1;jettySize=auto;html=1;strokeWidth=2;entryX=0.5;entryY=0;entryDx=0;entryDy=0;" parent="1" source="w2s6LgRouyM42ttrvnSr-189" target="w2s6LgRouyM42ttrvnSr-190" edge="1">
          <mxGeometry relative="1" as="geometry">
            <mxPoint x="510" y="1630" as="targetPoint"/>
          </mxGeometry>
        </mxCell>
        <mxCell id="w2s6LgRouyM42ttrvnSr-189" value="&lt;font style=&quot;vertical-align: inherit&quot;&gt;&lt;font style=&quot;vertical-align: inherit&quot;&gt;标记错误&lt;/font&gt;&lt;/font&gt;" style="strokeWidth=2;html=1;shape=mxgraph.flowchart.process;whiteSpace=wrap;fillColor=#d5e8d4;fontFamily=Helvetica;align=center;strokeColor=#82b366;" parent="1" vertex="1">
          <mxGeometry x="450" y="1540" width="120" height="40" as="geometry"/>
        </mxCell>
        <mxCell id="pvGRQGjDQXarwlFAsB4F-180" value="" style="edgeStyle=orthogonalEdgeStyle;rounded=0;orthogonalLoop=1;jettySize=auto;html=1;strokeWidth=2;" parent="1" source="w2s6LgRouyM42ttrvnSr-190" edge="1">
          <mxGeometry relative="1" as="geometry">
            <mxPoint x="509.8571428571429" y="1720" as="targetPoint"/>
          </mxGeometry>
        </mxCell>
        <mxCell id="w2s6LgRouyM42ttrvnSr-190" value="&lt;font style=&quot;vertical-align: inherit&quot;&gt;&lt;font style=&quot;vertical-align: inherit&quot;&gt;ACC OFF？&lt;/font&gt;&lt;/font&gt;" style="rhombus;whiteSpace=wrap;html=1;strokeWidth=2;fillColor=#f8cecc;fontFamily=Helvetica;align=center;strokeColor=#b85450;gradientColor=#ea6b66;" parent="1" vertex="1">
          <mxGeometry x="470" y="1619.7586206896551" width="80" height="80" as="geometry"/>
        </mxCell>
        <mxCell id="w2s6LgRouyM42ttrvnSr-196" value="N" style="text;html=1;resizable=0;points=[];autosize=1;align=left;verticalAlign=top;spacingTop=-4;fontFamily=Helvetica;fontSize=15;fontStyle=1" parent="1" vertex="1">
          <mxGeometry x="585" y="1565" width="30" height="10" as="geometry"/>
        </mxCell>
        <mxCell id="pvGRQGjDQXarwlFAsB4F-194" value="" style="edgeStyle=orthogonalEdgeStyle;rounded=0;orthogonalLoop=1;jettySize=auto;html=1;strokeWidth=2;" parent="1" source="w2s6LgRouyM42ttrvnSr-202" edge="1">
          <mxGeometry relative="1" as="geometry">
            <mxPoint x="680" y="1720" as="targetPoint"/>
          </mxGeometry>
        </mxCell>
        <mxCell id="w2s6LgRouyM42ttrvnSr-202" value="&lt;font style=&quot;vertical-align: inherit&quot;&gt;&lt;font style=&quot;vertical-align: inherit&quot;&gt;ACC OFF？&lt;/font&gt;&lt;/font&gt;" style="rhombus;whiteSpace=wrap;html=1;strokeWidth=2;fillColor=#f8cecc;fontFamily=Helvetica;align=center;strokeColor=#b85450;gradientColor=#ea6b66;" parent="1" vertex="1">
          <mxGeometry x="640" y="1619.7586206896551" width="80" height="80" as="geometry"/>
        </mxCell>
        <mxCell id="w2s6LgRouyM42ttrvnSr-206" value="Y" style="text;html=1;strokeColor=none;fillColor=none;align=center;verticalAlign=middle;whiteSpace=wrap;rounded=0;labelBackgroundColor=none;fontFamily=Helvetica;fontSize=15;fontStyle=1" parent="1" vertex="1">
          <mxGeometry x="685" y="1380" width="40" height="20" as="geometry"/>
        </mxCell>
        <mxCell id="w2s6LgRouyM42ttrvnSr-214" value="" style="edgeStyle=elbowEdgeStyle;elbow=horizontal;endArrow=classic;html=1;strokeWidth=2;exitX=1;exitY=0.5;exitDx=0;exitDy=0;" parent="1" source="w2s6LgRouyM42ttrvnSr-202" edge="1">
          <mxGeometry width="50" height="50" relative="1" as="geometry">
            <mxPoint x="805.189655172414" y="1699.9310344827586" as="sourcePoint"/>
            <mxPoint x="743" y="500" as="targetPoint"/>
            <Array as="points">
              <mxPoint x="860" y="539"/>
              <mxPoint x="860" y="1050"/>
              <mxPoint x="850" y="1050"/>
              <mxPoint x="840" y="870"/>
              <mxPoint x="850" y="870"/>
              <mxPoint x="840" y="1150"/>
              <mxPoint x="845.5" y="1630"/>
            </Array>
          </mxGeometry>
        </mxCell>
        <mxCell id="w2s6LgRouyM42ttrvnSr-217" value="Y" style="text;html=1;strokeColor=none;fillColor=none;align=center;verticalAlign=middle;whiteSpace=wrap;rounded=0;labelBackgroundColor=none;fontFamily=Helvetica;fontSize=15;fontStyle=1" parent="1" vertex="1">
          <mxGeometry x="680" y="1690" width="40" height="20" as="geometry"/>
        </mxCell>
        <mxCell id="w2s6LgRouyM42ttrvnSr-218" value="N" style="text;html=1;resizable=0;points=[];autosize=1;align=left;verticalAlign=top;spacingTop=-4;fontFamily=Helvetica;fontSize=15;fontStyle=1" parent="1" vertex="1">
          <mxGeometry x="770" y="1645" width="30" height="10" as="geometry"/>
        </mxCell>
        <mxCell id="w2s6LgRouyM42ttrvnSr-219" value="Y" style="text;html=1;strokeColor=none;fillColor=none;align=center;verticalAlign=middle;whiteSpace=wrap;rounded=0;labelBackgroundColor=none;fontFamily=Helvetica;fontSize=15;fontStyle=1" parent="1" vertex="1">
          <mxGeometry x="500" y="1700" width="40" height="20" as="geometry"/>
        </mxCell>
        <mxCell id="w2s6LgRouyM42ttrvnSr-220" value="Y" style="text;html=1;resizable=0;points=[];autosize=1;align=center;verticalAlign=middle;spacingTop=-4;fontFamily=Helvetica;labelPosition=center;verticalLabelPosition=middle;strokeWidth=2;fontSize=15;fontStyle=1" parent="1" vertex="1">
          <mxGeometry x="680" y="1135" width="20" height="10" as="geometry"/>
        </mxCell>
        <mxCell id="w2s6LgRouyM42ttrvnSr-222" value="N" style="text;html=1;resizable=0;points=[];autosize=1;align=left;verticalAlign=top;spacingTop=-4;fontFamily=Helvetica;fontSize=15;fontStyle=1" parent="1" vertex="1">
          <mxGeometry x="745" y="1060" width="30" height="10" as="geometry"/>
        </mxCell>
        <mxCell id="pvGRQGjDQXarwlFAsB4F-178" value="" style="edgeStyle=orthogonalEdgeStyle;rounded=0;orthogonalLoop=1;jettySize=auto;html=1;strokeWidth=2;" parent="1" source="pvGRQGjDQXarwlFAsB4F-171" target="5" edge="1">
          <mxGeometry relative="1" as="geometry"/>
        </mxCell>
        <mxCell id="pvGRQGjDQXarwlFAsB4F-171" value="POWER KEY&lt;br&gt;短按唤醒" style="strokeWidth=2;html=1;shape=mxgraph.flowchart.process;whiteSpace=wrap;fillColor=#d5e8d4;fontFamily=Helvetica;align=center;strokeColor=#82b366;" parent="1" vertex="1">
          <mxGeometry x="620" y="540" width="120" height="40" as="geometry"/>
        </mxCell>
        <mxCell id="pvGRQGjDQXarwlFAsB4F-185" value="&amp;gt;10s?" style="rhombus;whiteSpace=wrap;html=1;strokeWidth=2;fillColor=#f5f5f5;fontFamily=Helvetica;align=center;strokeColor=#666666;gradientColor=#b3b3b3;" parent="1" vertex="1">
          <mxGeometry x="470" y="280" width="80" height="80" as="geometry"/>
        </mxCell>
        <mxCell id="pvGRQGjDQXarwlFAsB4F-188" value="" style="edgeStyle=elbowEdgeStyle;elbow=horizontal;endArrow=classic;html=1;strokeWidth=2;exitX=1;exitY=0.5;exitDx=0;exitDy=0;exitPerimeter=0;entryX=1;entryY=0.5;entryDx=0;entryDy=0;" parent="1" source="3" target="2" edge="1">
          <mxGeometry width="50" height="50" relative="1" as="geometry">
            <mxPoint x="790" y="450" as="sourcePoint"/>
            <mxPoint x="730" y="320" as="targetPoint"/>
            <Array as="points">
              <mxPoint x="800" y="370"/>
            </Array>
          </mxGeometry>
        </mxCell>
        <mxCell id="pvGRQGjDQXarwlFAsB4F-191" value="关闭所有电源&lt;br&gt;" style="strokeWidth=2;html=1;shape=mxgraph.flowchart.process;whiteSpace=wrap;fillColor=#d5e8d4;fontFamily=Helvetica;align=center;strokeColor=#82b366;" parent="1" vertex="1">
          <mxGeometry x="450" y="1720" width="120" height="40" as="geometry"/>
        </mxCell>
        <mxCell id="pvGRQGjDQXarwlFAsB4F-181" value="" style="edgeStyle=segmentEdgeStyle;endArrow=classic;html=1;strokeWidth=2;exitX=0.5;exitY=1;exitDx=0;exitDy=0;exitPerimeter=0;" parent="1" source="pvGRQGjDQXarwlFAsB4F-191" edge="1">
          <mxGeometry width="50" height="50" relative="1" as="geometry">
            <mxPoint x="510" y="1880" as="sourcePoint"/>
            <mxPoint x="620" y="1820" as="targetPoint"/>
            <Array as="points">
              <mxPoint x="510" y="1820"/>
            </Array>
          </mxGeometry>
        </mxCell>
      </root>
    </mxGraphModel>
  </diagram>
</mxfile>
